<svg xmlns="http://www.w3.org/2000/svg" width="180" height="64.372" viewBox="0 0 180 64.372"><g transform="translate(3000.71 -16.2)"><rect width="29.56" height="0.528" transform="translate(-2992.672 77.9)" fill="#fff"/><rect width="29.853" height="0.528" transform="translate(-2852.469 77.9)" fill="#fff"/><path d="M-2448.026,126.8a11.4,11.4,0,0,0-11.026-9.5,11.47,11.47,0,0,0-11.349,11.525,11.445,11.445,0,0,0,11.407,11.437,11.075,11.075,0,0,0,5.748-1.642h.03a2.662,2.662,0,0,1,.381-.235,4.47,4.47,0,0,0,.469-.323l.117-.088a12.122,12.122,0,0,0,2.64-2.7l.264-.381-.205-.205-.235-.235-.762-.674a4.766,4.766,0,0,0-2.9-1.29,2.314,2.314,0,0,0-1.378.352l-.029.029-.323.323a5.472,5.472,0,0,1-3.813,1.584,4.77,4.77,0,0,1-4.838-3.9l15.719-.029.117-.323a8.3,8.3,0,0,0-.029-3.724m-11.085-4.575c2.082,0,3.988,1.642,4.809,4.105l-9.589.029c.762-2.463,2.668-4.106,4.78-4.135" transform="translate(-374.796 -71.452)" fill="#fff"/><path d="M-2673.226,127.2a11.4,11.4,0,0,0-11.026-9.5,11.47,11.47,0,0,0-11.349,11.525,11.445,11.445,0,0,0,11.407,11.437,11.079,11.079,0,0,0,5.749-1.642l.029-.029a2.625,2.625,0,0,1,.381-.235,4.526,4.526,0,0,0,.469-.323l.117-.088a11.642,11.642,0,0,0,2.639-2.727l.264-.411-.205-.205a1.833,1.833,0,0,0-.234-.235l-.763-.674a4.765,4.765,0,0,0-2.9-1.29,2.315,2.315,0,0,0-1.378.352l-.059.029-.322.323a5.472,5.472,0,0,1-3.812,1.584,4.771,4.771,0,0,1-4.839-3.9l15.719-.029.117-.323a6.518,6.518,0,0,0,0-3.636m-11.085-4.545c2.112,0,3.988,1.642,4.81,4.106l-9.589.029c.792-2.493,2.669-4.135,4.78-4.135" transform="translate(-215.636 -71.735)" fill="#fff"/><path d="M-2599.385,117.395a7.881,7.881,0,0,0-6.481,3.138,3.678,3.678,0,0,0-3.783-2.874c-1,0-2.551.44-2.551,1.026l.03,21.642,6.6-.029-.029-14.838a4.644,4.644,0,0,1,4.164-2.434c2.17,0,3.431,1.466,3.431,4.047l.029,8.27c0,4.369,2.522,5.044,4.018,5.015,1.026,0,2.581-.411,2.581-1l-.03-13.2c0-5.484-2.991-8.768-7.976-8.768" transform="translate(-274.579 -71.518)" fill="#fff"/><path d="M-2798.783,94.1c-1.5,0-4.017.674-4.017,5.073l.058,24.9h6.6l-.059-28.944c0-.616-1.554-1.026-2.581-1.026" transform="translate(-139.873 -55.056)" fill="#fff"/><path d="M-2969.283,94.5c-1.5,0-4.017.674-4.017,5.073l.059,24.9,6.6-.029-.059-28.944c0-.616-1.554-1.026-2.581-1" transform="translate(-19.373 -55.335)" fill="#fff"/><path d="M-2855.626,89.7c-3.93,0-8.534,2.317-8.5,8.768v.85h-1.261A2.491,2.491,0,0,0-2868,102.1v2.522h3.9l.029,16.393,6.305-.029-.03-16.393h6.041V101.87a2.554,2.554,0,0,0-2.493-2.581h-3.519v-.821c0-1.994.938-3.167,2.551-3.167a4.541,4.541,0,0,1,1.525.293l.175.029a1.32,1.32,0,0,0,.323.029c.646,0,1.877-.323,3.08-2.522l.411-.821.029-.029a.864.864,0,0,1,.117-.235l.117-.264-.38-.264a10.766,10.766,0,0,0-5.807-1.818" transform="translate(-93.792 -51.946)" fill="#fff"/><path d="M-2929.985,118.095a7.879,7.879,0,0,0-6.48,3.138,3.679,3.679,0,0,0-3.783-2.874c-1,0-2.551.44-2.551,1.026l.029,21.642,6.6-.029-.029-14.838a4.644,4.644,0,0,1,4.164-2.434c2.17,0,3.431,1.466,3.431,4.047l.029,8.27c0,4.369,2.522,5.015,4.017,5.015,1.027,0,2.581-.411,2.581-1l-.029-13.2c0-5.484-2.962-8.768-7.977-8.768" transform="translate(-40.928 -72.013)" fill="#fff"/><path d="M-2757.906,117.957l.029,14.838a4.645,4.645,0,0,1-4.164,2.434c-2.17,0-3.431-1.466-3.431-4.047l-.03-8.27c0-4.369-2.522-5.044-4.018-5.015-1.026,0-2.581.411-2.581,1.026l.029,13.2c0,5.513,2.991,8.8,7.977,8.8a7.881,7.881,0,0,0,6.481-3.138,3.678,3.678,0,0,0,3.783,2.874c1,0,2.551-.44,2.551-1.026l-.029-21.642Z" transform="translate(-161.57 -71.874)" fill="#fff"/><path d="M-2516.759,136.5l-.176-.264-.675-.88c-2.317-2.786-3.988-2.111-4.281-1.965l-.088.029-.088.059a5.5,5.5,0,0,1-.557.323l-.029.029a2.229,2.229,0,0,1-.381.176,5.057,5.057,0,0,1-.616.205l-.118.059a4.6,4.6,0,0,1-1.084.147,5.232,5.232,0,0,1-4.986-5.4,5.641,5.641,0,0,1,1.437-3.842,4.847,4.847,0,0,1,3.519-1.613,4.469,4.469,0,0,1,.879.088v.029l.293.059.616.176c.146.059.264.117.381.176.029,0,.029,0,.059.029a3.457,3.457,0,0,1,.557.323l.205.059c.293.147,1.994.792,4.281-2.023l.646-.88.175-.264.147-.235-.176-.205a7.78,7.78,0,0,0-.674-.645,11.263,11.263,0,0,0-7.39-2.757h-.029a11.446,11.446,0,0,0-11.29,11.554,11.414,11.414,0,0,0,11.378,11.407h.029a3.2,3.2,0,0,0,.528-.029h.176a1.1,1.1,0,0,0,.322-.029.319.319,0,0,0,.147-.029l.146-.029c.088,0,.147-.029.235-.029a.371.371,0,0,0,.176-.029l.176-.029c.059,0,.117-.029.176-.029s.117-.029.176-.029l.176-.029a.371.371,0,0,1,.176-.029.414.414,0,0,0,.176-.059l.147-.029a.319.319,0,0,1,.147-.029.315.315,0,0,0,.146-.059l.146-.059c.059-.029.117-.029.176-.059s.117-.029.176-.059l.147-.059c.059-.029.117-.029.176-.059a.5.5,0,0,1,.147-.059l.146-.059a.416.416,0,0,1,.176-.059c.059,0,.117-.059.147-.059l.146-.059a.641.641,0,0,0,.146-.088c.059-.029.088-.059.146-.088l.146-.059a.634.634,0,0,0,.147-.088.64.64,0,0,1,.146-.088l.117-.059c.059-.029.088-.059.146-.088a.656.656,0,0,1,.147-.088l.117-.088a.64.64,0,0,0,.146-.088c.03-.029.088-.059.118-.088l.117-.088a.51.51,0,0,0,.147-.117l.264-.205c.029-.029.088-.059.117-.088s.088-.059.118-.088l.264-.235.821-.85Z" transform="translate(-328.291 -71.594)" fill="#fff"/><path d="M-2399,111.6v-2.4h1.026a1.8,1.8,0,0,1,.557.059.742.742,0,0,1,.293.235.827.827,0,0,1,.118.381.721.721,0,0,1-.146.44.9.9,0,0,1-.47.235,1.613,1.613,0,0,1,.264.205,2.928,2.928,0,0,1,.264.381l.293.469h-.586l-.352-.528-.264-.352a.161.161,0,0,0-.146-.088.731.731,0,0,0-.234-.029h-.088v1H-2399Zm.5-1.378h.352a2.22,2.22,0,0,0,.44-.029c.059-.029.088-.059.147-.088a.423.423,0,0,0,.058-.176.552.552,0,0,0-.058-.205.254.254,0,0,0-.176-.088h-.733Z" transform="translate(-425.259 -65.728)" fill="#fff" fill-rule="evenodd"/><path d="M-2401.92,109.461a2.6,2.6,0,0,1-2.58-2.581,2.584,2.584,0,0,1,2.58-2.581,2.584,2.584,0,0,1,2.581,2.581,2.6,2.6,0,0,1-2.581,2.581m0-4.721a2.165,2.165,0,0,0-2.17,2.17,2.165,2.165,0,0,0,2.17,2.17,2.166,2.166,0,0,0,2.17-2.17,2.166,2.166,0,0,0-2.17-2.17" transform="translate(-421.372 -62.265)" fill="#fff"/><g transform="translate(-2958.395 73.582)"><path d="M-2851.979,213.926a2.5,2.5,0,0,0-1.026-.235,2.59,2.59,0,0,0-1.291.352,2.265,2.265,0,0,0-.909.909,2.41,2.41,0,0,0-.352,1.261,2.411,2.411,0,0,0,.352,1.261,2.262,2.262,0,0,0,.909.909,2.437,2.437,0,0,0,1.291.352,2.472,2.472,0,0,0,1.026-.205,2.89,2.89,0,0,0,.88-.586l.557.586a3.725,3.725,0,0,1-1.144.762,3.424,3.424,0,0,1-1.32.264,3.53,3.53,0,0,1-1.73-.44,3.454,3.454,0,0,1-1.231-1.2,3.206,3.206,0,0,1-.44-1.7,3.07,3.07,0,0,1,.469-1.672,3.457,3.457,0,0,1,1.231-1.2,3.533,3.533,0,0,1,1.73-.44,3.315,3.315,0,0,1,1.32.264,3.5,3.5,0,0,1,1.114.733l-.528.645A3.116,3.116,0,0,0-2851.979,213.926Z" transform="translate(2856.411 -212.599)" fill="#fff"/><path d="M-2825.029,218.752a2.19,2.19,0,0,1,.909.88,2.558,2.558,0,0,1,.323,1.29,2.711,2.711,0,0,1-.323,1.29,2.189,2.189,0,0,1-.909.88,2.921,2.921,0,0,1-1.32.323,2.588,2.588,0,0,1-1.319-.323,2.192,2.192,0,0,1-.909-.88,2.587,2.587,0,0,1-.323-1.32,2.481,2.481,0,0,1,.323-1.29,2.192,2.192,0,0,1,.909-.88,3.02,3.02,0,0,1,1.319-.323A3.261,3.261,0,0,1-2825.029,218.752Zm-2.17.674a1.322,1.322,0,0,0-.586.616,1.96,1.96,0,0,0-.205.909,1.881,1.881,0,0,0,.205.909,1.69,1.69,0,0,0,.586.616,1.79,1.79,0,0,0,.879.235,1.5,1.5,0,0,0,.851-.235,1.324,1.324,0,0,0,.586-.616,1.967,1.967,0,0,0,.206-.909,1.967,1.967,0,0,0-.206-.909,1.69,1.69,0,0,0-.586-.616,1.767,1.767,0,0,0-.851-.235,1.79,1.79,0,0,0-.879.235Z" transform="translate(2836.968 -216.486)" fill="#fff"/><path d="M-2793.829,219.075a1.892,1.892,0,0,1,.5,1.408v3.079h-.879v-2.845a1.312,1.312,0,0,0-.352-1,1.257,1.257,0,0,0-.938-.352,1.517,1.517,0,0,0-1.115.5,1.9,1.9,0,0,0-.41,1.232v2.463h-.88v-2.845a1.313,1.313,0,0,0-.352-1,1.256,1.256,0,0,0-.938-.352,1.469,1.469,0,0,0-1.115.5,1.744,1.744,0,0,0-.41,1.232v2.463h-.88v-4.956h.88v1.056a1.838,1.838,0,0,1,1.848-1.056,1.793,1.793,0,0,1,1.143.323,1.751,1.751,0,0,1,.616.909,1.89,1.89,0,0,1,1.935-1.261A1.663,1.663,0,0,1-2793.829,219.075Z" transform="translate(2817.673 -216.604)" fill="#fff"/><path d="M-2754.729,219.075a1.9,1.9,0,0,1,.5,1.408v3.079h-.879v-2.845a1.314,1.314,0,0,0-.352-1,1.255,1.255,0,0,0-.938-.352,1.515,1.515,0,0,0-1.115.5,1.892,1.892,0,0,0-.411,1.232v2.463h-.88v-2.845a1.313,1.313,0,0,0-.352-1,1.255,1.255,0,0,0-.938-.352,1.469,1.469,0,0,0-1.114.5,1.745,1.745,0,0,0-.411,1.232v2.463h-.88v-4.956h.88v1.056a1.837,1.837,0,0,1,1.848-1.056,1.794,1.794,0,0,1,1.144.323,1.75,1.75,0,0,1,.616.909,1.891,1.891,0,0,1,1.936-1.261A1.63,1.63,0,0,1-2754.729,219.075Z" transform="translate(2790.039 -216.604)" fill="#fff"/><path d="M-2719.333,218.6v4.956h-.88V222.53a1.9,1.9,0,0,1-1.848,1.085,1.764,1.764,0,0,1-1.349-.5,1.942,1.942,0,0,1-.5-1.408v-3.079h.88v2.845a1.215,1.215,0,0,0,.353.968,1.255,1.255,0,0,0,.938.352,1.514,1.514,0,0,0,1.114-.5,1.747,1.747,0,0,0,.411-1.232v-2.434Z" transform="translate(2762.767 -216.628)" fill="#fff"/><path d="M-2692.566,219.12a1.893,1.893,0,0,1,.5,1.408v3.079h-.879v-2.845a1.326,1.326,0,0,0-.352-.968,1.324,1.324,0,0,0-.968-.352,1.505,1.505,0,0,0-1.085.44,1.663,1.663,0,0,0-.469,1.085v2.669h-.88V218.68h.88v1.056a1.945,1.945,0,0,1,1.876-1.085A1.639,1.639,0,0,1-2692.566,219.12Z" transform="translate(2743.535 -216.649)" fill="#fff"/><path d="M-2669.291,212.029a.549.549,0,0,1,.147.411.705.705,0,0,1-.147.411.382.382,0,0,1-.381.147.557.557,0,0,1-.381-.147.548.548,0,0,1-.147-.411.7.7,0,0,1,.147-.411.381.381,0,0,1,.381-.147A.558.558,0,0,1-2669.291,212.029Zm-.821,1.818h.879V218.8h-.879Z" transform="translate(2724.806 -211.875)" fill="#fff"/><path d="M-2654.449,219.433a1.849,1.849,0,0,0-.88.205,1.324,1.324,0,0,0-.586.616,1.652,1.652,0,0,0-.205.909,1.96,1.96,0,0,0,.205.909,1.485,1.485,0,0,0,.586.616,1.769,1.769,0,0,0,.85.235,2.726,2.726,0,0,0,.851-.147,1.66,1.66,0,0,0,.645-.469l.5.5a2.26,2.26,0,0,1-.85.645,3.22,3.22,0,0,1-1.173.235,2.555,2.555,0,0,1-1.291-.323,2.3,2.3,0,0,1-.88-.88,2.893,2.893,0,0,1-.322-1.29,2.486,2.486,0,0,1,.322-1.29,2.119,2.119,0,0,1,.88-.88,2.8,2.8,0,0,1,1.291-.323,3.146,3.146,0,0,1,1.144.205,2.388,2.388,0,0,1,.851.557l-.47.587A2.066,2.066,0,0,0-2654.449,219.433Z" transform="translate(2715.477 -216.698)" fill="#fff"/><path d="M-2630.376,223.426v-.7a2.008,2.008,0,0,1-1.73.733,1.968,1.968,0,0,1-.91-.205,1.346,1.346,0,0,1-.586-.557,1.454,1.454,0,0,1-.205-.792,1.263,1.263,0,0,1,.5-1.056,2.311,2.311,0,0,1,1.378-.411h1.584V220.2a.987.987,0,0,0-.323-.821,1.381,1.381,0,0,0-.938-.293,2.81,2.81,0,0,0-1.525.528l-.352-.587a4.532,4.532,0,0,1,1-.5,2.7,2.7,0,0,1,1.084-.147,1.984,1.984,0,0,1,1.437.469,1.7,1.7,0,0,1,.528,1.261v3.255Zm-.528-1a1.1,1.1,0,0,0,.5-.792v-.5h-1.466a1.537,1.537,0,0,0-.879.176.6.6,0,0,0-.293.557.737.737,0,0,0,.293.616,1.476,1.476,0,0,0,.792.235,1.6,1.6,0,0,0,1.055-.293Z" transform="translate(2699.087 -216.468)" fill="#fff"/><path d="M-2606.7,220.406a2.114,2.114,0,0,1-1.173.352,1.323,1.323,0,0,1-.968-.352,1.3,1.3,0,0,1-.352-1.056v-2.757h-.7v-.674h.7V214.6h.879v1.32h1.525v.674h-1.525v2.581a.844.844,0,0,0,.146.586.535.535,0,0,0,.439.176,1.454,1.454,0,0,0,.763-.235Z" transform="translate(2682.189 -213.801)" fill="#fff"/><path d="M-2588.991,212.029a.547.547,0,0,1,.146.411.7.7,0,0,1-.146.411.381.381,0,0,1-.381.147.558.558,0,0,1-.381-.147.549.549,0,0,1-.146-.411.7.7,0,0,1,.146-.411.382.382,0,0,1,.381-.147A.557.557,0,0,1-2588.991,212.029Zm-.821,1.818h.879V218.8h-.879Z" transform="translate(2668.054 -211.875)" fill="#fff"/><path d="M-2572.829,218.752a2.192,2.192,0,0,1,.909.88,2.557,2.557,0,0,1,.322,1.29,2.717,2.717,0,0,1-.322,1.29,2.192,2.192,0,0,1-.909.88,2.924,2.924,0,0,1-1.32.323,2.589,2.589,0,0,1-1.32-.323,2.193,2.193,0,0,1-.909-.88,2.587,2.587,0,0,1-.323-1.32,2.481,2.481,0,0,1,.323-1.29,2.194,2.194,0,0,1,.909-.88,3.022,3.022,0,0,1,1.32-.323A3.538,3.538,0,0,1-2572.829,218.752Zm-2.2.674a1.328,1.328,0,0,0-.587.616,1.973,1.973,0,0,0-.205.909,1.892,1.892,0,0,0,.205.909,1.692,1.692,0,0,0,.587.616,1.79,1.79,0,0,0,.879.235,1.5,1.5,0,0,0,.851-.235,1.326,1.326,0,0,0,.586-.616,1.966,1.966,0,0,0,.205-.909,1.966,1.966,0,0,0-.205-.909,1.7,1.7,0,0,0-.586-.616,1.771,1.771,0,0,0-.851-.235,1.79,1.79,0,0,0-.879.235Z" transform="translate(2658.726 -216.486)" fill="#fff"/><path d="M-2545.365,219.12a1.9,1.9,0,0,1,.5,1.408v3.079h-.88v-2.845a1.326,1.326,0,0,0-.352-.968,1.325,1.325,0,0,0-.968-.352,1.506,1.506,0,0,0-1.085.44,1.665,1.665,0,0,0-.469,1.085v2.669h-.88V218.68h.88v1.056a1.943,1.943,0,0,1,1.876-1.085A1.583,1.583,0,0,1-2545.365,219.12Z" transform="translate(2639.502 -216.649)" fill="#fff"/><path d="M-2522.131,219.109a2.946,2.946,0,0,0-.7-.117,1.231,1.231,0,0,0-.645.147.517.517,0,0,0-.234.44.529.529,0,0,0,.264.469,3.991,3.991,0,0,0,.821.323c.293.088.558.176.85.293a1.61,1.61,0,0,1,.557.44,1.231,1.231,0,0,1,.235.762,1.185,1.185,0,0,1-.528,1.056,2.089,2.089,0,0,1-1.32.352,3.5,3.5,0,0,1-1.085-.176,2.634,2.634,0,0,1-.88-.5l.322-.645a2,2,0,0,0,.763.44,2.355,2.355,0,0,0,.879.176,1.523,1.523,0,0,0,.7-.147.543.543,0,0,0,.264-.5.543.543,0,0,0-.264-.5,4.319,4.319,0,0,0-.851-.352c-.264-.088-.557-.176-.821-.293a1.253,1.253,0,0,1-.528-.44,1.28,1.28,0,0,1-.234-.733,1.228,1.228,0,0,1,.5-1.056,2.408,2.408,0,0,1,1.261-.352,3.022,3.022,0,0,1,.879.117,2.565,2.565,0,0,1,.763.352l-.323.674C-2521.662,219.285-2521.9,219.2-2522.131,219.109Z" transform="translate(2622.045 -216.345)" fill="#fff"/></g><path d="M-2990.2,27.714a8.955,8.955,0,0,1,8.944-8.915,9.1,9.1,0,0,1,9.062,9.12,9.087,9.087,0,0,1-9.12,8.915A8.949,8.949,0,0,1-2990.2,27.714Zm9,6.07a5.963,5.963,0,0,0,5.924-6.012,5.926,5.926,0,0,0-6.011-5.924,6.007,6.007,0,0,0-5.953,6.012A6.027,6.027,0,0,0-2981.2,33.785Z" transform="translate(-7.426 -1.837)" fill="#bfbfbf"/><path d="M-2941.9,16.2a8.281,8.281,0,0,1,6.48,5.894,8.608,8.608,0,0,1-2.053,8.915,10.981,10.981,0,0,0,.821-8.328A11.2,11.2,0,0,0-2941.9,16.2Z" transform="translate(-41.564)" fill="#fff"/><path d="M-2998.537,34c-2.464,6.569.058,11.906,5.219,14.692a8.33,8.33,0,0,1-6.656-5.279A9,9,0,0,1-2998.537,34Z" transform="translate(0 -12.58)" fill="#fff"/><path d="M-2975,38.575A4.494,4.494,0,0,1-2970.485,34a4.59,4.59,0,0,1,4.545,4.457,4.614,4.614,0,0,1-4.457,4.663A4.561,4.561,0,0,1-2975,38.575Z" transform="translate(-18.171 -12.58)" fill="#fff"/></g></svg>